<svg xmlns="http://www.w3.org/2000/svg" width="442.769" height="662.921" viewBox="0 0 442.769 662.921">
  <g id="Сгруппировать_11" data-name="Сгруппировать 11" transform="translate(0.186 -1338.504)">
    <g id="Компонент_1_1" data-name="Компонент 1 – 1" transform="translate(-0.186 1736.044)">
      <path id="Контур_3" data-name="Контур 3" d="M190,0C294.934,0,380,80.141,380,179a170.312,170.312,0,0,1-22.7,84.919c-91.557-.47-259.008,0-259.008,0-.2-63.112.122-241.788.122-241.788A198.184,198.184,0,0,1,190,0Z" transform="translate(-98.225)" fill="#21af97"/>
    </g>
    <g id="Сгруппировать_5" data-name="Сгруппировать 5" transform="translate(49.368 205.795)">
      <g id="Контур_1" data-name="Контур 1" transform="translate(194.625 1773.78) rotate(-56)" fill="none">
        <path d="M32.057.985c17.879.841,32.754,9.64,33.226,19.652S51.642,38.084,33.763,37.242,1.009,27.6.538,17.591,14.178.144,32.057.985Z" stroke="none"/>
        <path d="M 29.31337356567383 5.920223236083984 C 24.43544006347656 5.920223236083984 19.77345657348633 6.613037109375 15.83140182495117 7.923755645751953 C 12.25828170776367 9.111808776855469 9.405040740966797 10.75083541870117 7.580135345458984 12.66362190246582 C 6.125160217285156 14.18866348266602 5.455226898193359 15.72340965270996 5.532028198242188 17.3555965423584 C 5.597896575927734 18.75563621520996 6.214935302734375 20.21878242492676 7.366001129150391 21.70439529418945 C 8.690975189208984 23.41444969177246 10.69720077514648 25.09074401855469 13.16781616210938 26.55202293395996 C 15.84528350830078 28.13565063476563 18.96718978881836 29.43400955200195 22.44681549072266 30.4110221862793 C 26.11868286132813 31.4420223236084 30.00508117675781 32.06003570556641 33.99801635742188 32.24790191650391 C 34.83541488647461 32.28730392456055 35.67948150634766 32.30727767944336 36.50677490234375 32.30727767944336 C 41.38471984863281 32.30727767944336 46.04672241210938 31.61446380615234 49.98877716064453 30.30374336242676 C 53.56190872192383 29.11568832397461 56.4151611328125 27.47666168212891 58.24006652832031 25.56387710571289 C 59.69503021240234 24.03884887695313 60.36496353149414 22.50408935546875 60.28816223144531 20.87191581726074 C 60.22229385375977 19.47187614440918 59.60525512695313 18.00872993469238 58.45418930053711 16.52311706542969 C 57.12921524047852 14.81306266784668 55.12298965454102 13.13677024841309 52.65237426757813 11.67548942565918 C 49.97490692138672 10.09186363220215 46.85300445556641 8.793502807617188 43.37337493896484 7.816490173339844 C 39.70149612426758 6.785490036010742 35.81509399414063 6.167476654052734 31.82209396362305 5.979595184326172 C 30.98480224609375 5.940196990966797 30.1407470703125 5.920223236083984 29.31337356567383 5.920223236083984 M 29.31337356567383 0.92022705078125 C 30.21706008911133 0.92022705078125 31.13175201416016 0.94158935546875 32.05712127685547 0.9851303100585938 C 49.93598937988281 1.826343536376953 64.81156158447266 10.62474250793457 65.28263854980469 20.63691711425781 C 65.72935485839844 30.13086891174316 53.06303787231445 37.30728149414063 36.50677490234375 37.30728149414063 C 35.60308456420898 37.30728149414063 34.68842697143555 37.28592300415039 33.76305389404297 37.24238204956055 C 15.88420104980469 36.40116882324219 1.008628845214844 27.60276985168457 0.5375518798828125 17.59059524536133 C 0.0908355712890625 8.096643447875977 12.75712966918945 0.92022705078125 29.31337356567383 0.92022705078125 Z" stroke="none" fill="#21af97"/>
      </g>
      <g id="Контур_2" data-name="Контур 2" transform="translate(240.173 1791.128) rotate(-137)" fill="none">
        <path d="M32.658-.987c17.879-.841,31.991,6.593,31.52,16.605S48.831,34.429,30.952,35.27-1.038,28.677-.567,18.665,14.779-.146,32.658-.987Z" stroke="none"/>
        <path d="M 35.40185546875 3.947864532470703 C 34.57452392578125 3.947864532470703 33.7304573059082 3.967838287353516 32.89311218261719 4.007251739501953 C 28.90013885498047 4.195117950439453 25.01373672485352 4.813131332397461 21.34185791015625 5.844131469726563 C 17.86223220825195 6.821144104003906 14.74032592773438 8.119504928588867 12.06285858154297 9.703144073486328 C 9.592243194580078 11.16442489624023 7.586017608642578 12.8407039642334 6.261043548583984 14.55077171325684 C 5.109977722167969 16.0363712310791 4.492938995361328 17.4995174407959 4.427070617675781 18.89955711364746 C 4.350242614746094 20.53215789794922 5.020217895507813 22.0671443939209 6.475231170654297 23.59223747253418 C 8.299991607666016 25.5048770904541 11.15305709838867 27.14373016357422 14.72599029541016 28.33162307739258 C 18.66793823242188 29.64219665527344 23.33008575439453 30.33493041992188 28.20841598510742 30.33493041992188 C 29.03575134277344 30.33493041992188 29.87981796264648 30.31495666503906 30.7171630859375 30.27554321289063 C 34.71013641357422 30.08767700195313 38.59653854370117 29.46966361999512 42.26841735839844 28.43866348266602 C 45.748046875 27.46165084838867 48.86994934082031 26.16329193115234 51.54741668701172 24.57965087890625 C 54.01803207397461 23.11837005615234 56.02426910400391 21.44209098815918 57.3492431640625 19.73202514648438 C 58.50031280517578 18.24641036987305 59.11735153198242 16.78327751159668 59.1832160949707 15.38323783874512 C 59.26004409790039 13.75065040588379 58.59008407592773 12.21565055847168 57.13505554199219 10.6905574798584 C 55.31029891967773 8.777931213378906 52.45721817016602 7.139078140258789 48.88428497314453 5.951169967651367 C 44.94235229492188 4.640598297119141 40.28020477294922 3.947864532470703 35.40185546875 3.947864532470703 M 35.40186309814453 -1.052131652832031 C 51.95968246459961 -1.052131652832031 64.62442779541016 6.123674392700195 64.17769622802734 15.61823654174805 C 63.70660400390625 25.63039779663086 48.83103179931641 34.42881011962891 30.95216369628906 35.27002334594727 C 30.02788543701172 35.31351470947266 29.11106491088867 35.33492660522461 28.20841217041016 35.33492660522461 C 11.65059280395508 35.33492660522461 -1.014144897460938 28.15912055969238 -0.5674057006835938 18.66455841064453 C -0.0963287353515625 8.652397155761719 14.77924346923828 -0.1460151672363281 32.65811157226563 -0.9872283935546875 C 33.58238983154297 -1.030719757080078 34.49921417236328 -1.052131652832031 35.40186309814453 -1.052131652832031 Z" stroke="none" fill="#21af97"/>
      </g>
    </g>
    <g id="Сгруппировать_2" data-name="Сгруппировать 2" transform="matrix(0.588, 0.809, -0.809, 0.588, 636.726, -37.522)">
      <g id="Эллипс_2" data-name="Эллипс 2" transform="translate(1099.846 1172.556) rotate(-45)" fill="none" stroke="#21af97" stroke-width="7">
        <ellipse cx="50" cy="28" rx="50" ry="28" stroke="none"/>
        <ellipse cx="50" cy="28" rx="46.5" ry="24.5" fill="none"/>
      </g>
      <g id="Эллипс_3" data-name="Эллипс 3" transform="translate(1170.344 1211.824) rotate(-135)" fill="none" stroke="#21af97" stroke-width="7">
        <ellipse cx="50" cy="28" rx="50" ry="28" stroke="none"/>
        <ellipse cx="50" cy="28" rx="46.5" ry="24.5" fill="none"/>
      </g>
    </g>
    <g id="Сгруппировать_3" data-name="Сгруппировать 3" transform="translate(-1230.1 1151.593) rotate(-21)">
      <g id="Эллипс_2-2" data-name="Эллипс 2" transform="translate(1099.846 1172.556) rotate(-45)" fill="none" stroke="#21af97" stroke-width="7">
        <ellipse cx="50" cy="28" rx="50" ry="28" stroke="none"/>
        <ellipse cx="50" cy="28" rx="46.5" ry="24.5" fill="none"/>
      </g>
      <g id="Эллипс_3-2" data-name="Эллипс 3" transform="translate(1170.344 1211.824) rotate(-135)" fill="none" stroke="#21af97" stroke-width="7">
        <ellipse cx="50" cy="28" rx="50" ry="28" stroke="none"/>
        <ellipse cx="50" cy="28" rx="46.5" ry="24.5" fill="none"/>
      </g>
    </g>
    <g id="Сгруппировать_4" data-name="Сгруппировать 4" transform="translate(-278.136 450.676) rotate(21)">
      <g id="Эллипс_2-3" data-name="Эллипс 2" transform="translate(1099.846 1172.556) rotate(-45)" fill="none" stroke="#21af97" stroke-width="7">
        <ellipse cx="50" cy="28" rx="50" ry="28" stroke="none"/>
        <ellipse cx="50" cy="28" rx="46.5" ry="24.5" fill="none"/>
      </g>
      <g id="Эллипс_3-3" data-name="Эллипс 3" transform="translate(1170.344 1211.824) rotate(-135)" fill="none" stroke="#21af97" stroke-width="7">
        <ellipse cx="50" cy="28" rx="50" ry="28" stroke="none"/>
        <ellipse cx="50" cy="28" rx="46.5" ry="24.5" fill="none"/>
      </g>
    </g>
    <g id="Сгруппировать_6" data-name="Сгруппировать 6" transform="translate(-873.043 351.145) rotate(7)">
      <g id="Эллипс_2-4" data-name="Эллипс 2" transform="translate(1099.846 1172.556) rotate(-45)" fill="none" stroke="#21af97" stroke-width="7">
        <ellipse cx="50" cy="28" rx="50" ry="28" stroke="none"/>
        <ellipse cx="50" cy="28" rx="46.5" ry="24.5" fill="none"/>
      </g>
      <g id="Эллипс_3-4" data-name="Эллипс 3" transform="translate(1170.344 1211.824) rotate(-135)" fill="none" stroke="#21af97" stroke-width="7">
        <ellipse cx="50" cy="28" rx="50" ry="28" stroke="none"/>
        <ellipse cx="50" cy="28" rx="46.5" ry="24.5" fill="none"/>
      </g>
    </g>
    <g id="Сгруппировать_7" data-name="Сгруппировать 7" transform="matrix(0.454, 0.891, -0.891, 0.454, 1869.399, 784.534)">
      <g id="Контур_1-2" data-name="Контур 1" transform="translate(194.625 1773.78) rotate(-56)" fill="none">
        <path d="M32.057.985c17.879.841,32.754,9.64,33.226,19.652S51.642,38.084,33.763,37.242,1.009,27.6.538,17.591,14.178.144,32.057.985Z" stroke="none"/>
        <path d="M 29.31337356567383 5.920223236083984 C 24.43544006347656 5.920223236083984 19.77345657348633 6.613037109375 15.83140182495117 7.923755645751953 C 12.25828170776367 9.111808776855469 9.405040740966797 10.75083541870117 7.580135345458984 12.66362190246582 C 6.125160217285156 14.18866348266602 5.455226898193359 15.72340965270996 5.532028198242188 17.3555965423584 C 5.597896575927734 18.75563621520996 6.214935302734375 20.21878242492676 7.366001129150391 21.70439529418945 C 8.690975189208984 23.41444969177246 10.69720077514648 25.09074401855469 13.16781616210938 26.55202293395996 C 15.84528350830078 28.13565063476563 18.96718978881836 29.43400955200195 22.44681549072266 30.4110221862793 C 26.11868286132813 31.4420223236084 30.00508117675781 32.06003570556641 33.99801635742188 32.24790191650391 C 34.83541488647461 32.28730392456055 35.67948150634766 32.30727767944336 36.50677490234375 32.30727767944336 C 41.38471984863281 32.30727767944336 46.04672241210938 31.61446380615234 49.98877716064453 30.30374336242676 C 53.56190872192383 29.11568832397461 56.4151611328125 27.47666168212891 58.24006652832031 25.56387710571289 C 59.69503021240234 24.03884887695313 60.36496353149414 22.50408935546875 60.28816223144531 20.87191581726074 C 60.22229385375977 19.47187614440918 59.60525512695313 18.00872993469238 58.45418930053711 16.52311706542969 C 57.12921524047852 14.81306266784668 55.12298965454102 13.13677024841309 52.65237426757813 11.67548942565918 C 49.97490692138672 10.09186363220215 46.85300445556641 8.793502807617188 43.37337493896484 7.816490173339844 C 39.70149612426758 6.785490036010742 35.81509399414063 6.167476654052734 31.82209396362305 5.979595184326172 C 30.98480224609375 5.940196990966797 30.1407470703125 5.920223236083984 29.31337356567383 5.920223236083984 M 29.31337356567383 0.92022705078125 C 30.21706008911133 0.92022705078125 31.13175201416016 0.94158935546875 32.05712127685547 0.9851303100585938 C 49.93598937988281 1.826343536376953 64.81156158447266 10.62474250793457 65.28263854980469 20.63691711425781 C 65.72935485839844 30.13086891174316 53.06303787231445 37.30728149414063 36.50677490234375 37.30728149414063 C 35.60308456420898 37.30728149414063 34.68842697143555 37.28592300415039 33.76305389404297 37.24238204956055 C 15.88420104980469 36.40116882324219 1.008628845214844 27.60276985168457 0.5375518798828125 17.59059524536133 C 0.0908355712890625 8.096643447875977 12.75712966918945 0.92022705078125 29.31337356567383 0.92022705078125 Z" stroke="none" fill="#21af97"/>
      </g>
      <g id="Контур_2-2" data-name="Контур 2" transform="translate(240.173 1791.128) rotate(-137)" fill="none">
        <path d="M32.658-.987c17.879-.841,31.991,6.593,31.52,16.605S48.831,34.429,30.952,35.27-1.038,28.677-.567,18.665,14.779-.146,32.658-.987Z" stroke="none"/>
        <path d="M 35.40185546875 3.947864532470703 C 34.57452392578125 3.947864532470703 33.7304573059082 3.967838287353516 32.89311218261719 4.007251739501953 C 28.90013885498047 4.195117950439453 25.01373672485352 4.813131332397461 21.34185791015625 5.844131469726563 C 17.86223220825195 6.821144104003906 14.74032592773438 8.119504928588867 12.06285858154297 9.703144073486328 C 9.592243194580078 11.16442489624023 7.586017608642578 12.8407039642334 6.261043548583984 14.55077171325684 C 5.109977722167969 16.0363712310791 4.492938995361328 17.4995174407959 4.427070617675781 18.89955711364746 C 4.350242614746094 20.53215789794922 5.020217895507813 22.0671443939209 6.475231170654297 23.59223747253418 C 8.299991607666016 25.5048770904541 11.15305709838867 27.14373016357422 14.72599029541016 28.33162307739258 C 18.66793823242188 29.64219665527344 23.33008575439453 30.33493041992188 28.20841598510742 30.33493041992188 C 29.03575134277344 30.33493041992188 29.87981796264648 30.31495666503906 30.7171630859375 30.27554321289063 C 34.71013641357422 30.08767700195313 38.59653854370117 29.46966361999512 42.26841735839844 28.43866348266602 C 45.748046875 27.46165084838867 48.86994934082031 26.16329193115234 51.54741668701172 24.57965087890625 C 54.01803207397461 23.11837005615234 56.02426910400391 21.44209098815918 57.3492431640625 19.73202514648438 C 58.50031280517578 18.24641036987305 59.11735153198242 16.78327751159668 59.1832160949707 15.38323783874512 C 59.26004409790039 13.75065040588379 58.59008407592773 12.21565055847168 57.13505554199219 10.6905574798584 C 55.31029891967773 8.777931213378906 52.45721817016602 7.139078140258789 48.88428497314453 5.951169967651367 C 44.94235229492188 4.640598297119141 40.28020477294922 3.947864532470703 35.40185546875 3.947864532470703 M 35.40186309814453 -1.052131652832031 C 51.95968246459961 -1.052131652832031 64.62442779541016 6.123674392700195 64.17769622802734 15.61823654174805 C 63.70660400390625 25.63039779663086 48.83103179931641 34.42881011962891 30.95216369628906 35.27002334594727 C 30.02788543701172 35.31351470947266 29.11106491088867 35.33492660522461 28.20841217041016 35.33492660522461 C 11.65059280395508 35.33492660522461 -1.014144897460938 28.15912055969238 -0.5674057006835938 18.66455841064453 C -0.0963287353515625 8.652397155761719 14.77924346923828 -0.1460151672363281 32.65811157226563 -0.9872283935546875 C 33.58238983154297 -1.030719757080078 34.49921417236328 -1.052131652832031 35.40186309814453 -1.052131652832031 Z" stroke="none" fill="#21af97"/>
      </g>
    </g>
    <g id="Сгруппировать_8" data-name="Сгруппировать 8" transform="translate(74.368 -66.163)">
      <g id="Контур_1-3" data-name="Контур 1" transform="translate(194.625 1773.78) rotate(-56)" fill="none">
        <path d="M32.057.985c17.879.841,32.754,9.64,33.226,19.652S51.642,38.084,33.763,37.242,1.009,27.6.538,17.591,14.178.144,32.057.985Z" stroke="none"/>
        <path d="M 29.31337356567383 5.920223236083984 C 24.43544006347656 5.920223236083984 19.77345657348633 6.613037109375 15.83140182495117 7.923755645751953 C 12.25828170776367 9.111808776855469 9.405040740966797 10.75083541870117 7.580135345458984 12.66362190246582 C 6.125160217285156 14.18866348266602 5.455226898193359 15.72340965270996 5.532028198242188 17.3555965423584 C 5.597896575927734 18.75563621520996 6.214935302734375 20.21878242492676 7.366001129150391 21.70439529418945 C 8.690975189208984 23.41444969177246 10.69720077514648 25.09074401855469 13.16781616210938 26.55202293395996 C 15.84528350830078 28.13565063476563 18.96718978881836 29.43400955200195 22.44681549072266 30.4110221862793 C 26.11868286132813 31.4420223236084 30.00508117675781 32.06003570556641 33.99801635742188 32.24790191650391 C 34.83541488647461 32.28730392456055 35.67948150634766 32.30727767944336 36.50677490234375 32.30727767944336 C 41.38471984863281 32.30727767944336 46.04672241210938 31.61446380615234 49.98877716064453 30.30374336242676 C 53.56190872192383 29.11568832397461 56.4151611328125 27.47666168212891 58.24006652832031 25.56387710571289 C 59.69503021240234 24.03884887695313 60.36496353149414 22.50408935546875 60.28816223144531 20.87191581726074 C 60.22229385375977 19.47187614440918 59.60525512695313 18.00872993469238 58.45418930053711 16.52311706542969 C 57.12921524047852 14.81306266784668 55.12298965454102 13.13677024841309 52.65237426757813 11.67548942565918 C 49.97490692138672 10.09186363220215 46.85300445556641 8.793502807617188 43.37337493896484 7.816490173339844 C 39.70149612426758 6.785490036010742 35.81509399414063 6.167476654052734 31.82209396362305 5.979595184326172 C 30.98480224609375 5.940196990966797 30.1407470703125 5.920223236083984 29.31337356567383 5.920223236083984 M 29.31337356567383 0.92022705078125 C 30.21706008911133 0.92022705078125 31.13175201416016 0.94158935546875 32.05712127685547 0.9851303100585938 C 49.93598937988281 1.826343536376953 64.81156158447266 10.62474250793457 65.28263854980469 20.63691711425781 C 65.72935485839844 30.13086891174316 53.06303787231445 37.30728149414063 36.50677490234375 37.30728149414063 C 35.60308456420898 37.30728149414063 34.68842697143555 37.28592300415039 33.76305389404297 37.24238204956055 C 15.88420104980469 36.40116882324219 1.008628845214844 27.60276985168457 0.5375518798828125 17.59059524536133 C 0.0908355712890625 8.096643447875977 12.75712966918945 0.92022705078125 29.31337356567383 0.92022705078125 Z" stroke="none" fill="#21af97"/>
      </g>
      <g id="Контур_2-3" data-name="Контур 2" transform="translate(240.173 1791.128) rotate(-137)" fill="none">
        <path d="M32.658-.987c17.879-.841,31.991,6.593,31.52,16.605S48.831,34.429,30.952,35.27-1.038,28.677-.567,18.665,14.779-.146,32.658-.987Z" stroke="none"/>
        <path d="M 35.40185546875 3.947864532470703 C 34.57452392578125 3.947864532470703 33.7304573059082 3.967838287353516 32.89311218261719 4.007251739501953 C 28.90013885498047 4.195117950439453 25.01373672485352 4.813131332397461 21.34185791015625 5.844131469726563 C 17.86223220825195 6.821144104003906 14.74032592773438 8.119504928588867 12.06285858154297 9.703144073486328 C 9.592243194580078 11.16442489624023 7.586017608642578 12.8407039642334 6.261043548583984 14.55077171325684 C 5.109977722167969 16.0363712310791 4.492938995361328 17.4995174407959 4.427070617675781 18.89955711364746 C 4.350242614746094 20.53215789794922 5.020217895507813 22.0671443939209 6.475231170654297 23.59223747253418 C 8.299991607666016 25.5048770904541 11.15305709838867 27.14373016357422 14.72599029541016 28.33162307739258 C 18.66793823242188 29.64219665527344 23.33008575439453 30.33493041992188 28.20841598510742 30.33493041992188 C 29.03575134277344 30.33493041992188 29.87981796264648 30.31495666503906 30.7171630859375 30.27554321289063 C 34.71013641357422 30.08767700195313 38.59653854370117 29.46966361999512 42.26841735839844 28.43866348266602 C 45.748046875 27.46165084838867 48.86994934082031 26.16329193115234 51.54741668701172 24.57965087890625 C 54.01803207397461 23.11837005615234 56.02426910400391 21.44209098815918 57.3492431640625 19.73202514648438 C 58.50031280517578 18.24641036987305 59.11735153198242 16.78327751159668 59.1832160949707 15.38323783874512 C 59.26004409790039 13.75065040588379 58.59008407592773 12.21565055847168 57.13505554199219 10.6905574798584 C 55.31029891967773 8.777931213378906 52.45721817016602 7.139078140258789 48.88428497314453 5.951169967651367 C 44.94235229492188 4.640598297119141 40.28020477294922 3.947864532470703 35.40185546875 3.947864532470703 M 35.40186309814453 -1.052131652832031 C 51.95968246459961 -1.052131652832031 64.62442779541016 6.123674392700195 64.17769622802734 15.61823654174805 C 63.70660400390625 25.63039779663086 48.83103179931641 34.42881011962891 30.95216369628906 35.27002334594727 C 30.02788543701172 35.31351470947266 29.11106491088867 35.33492660522461 28.20841217041016 35.33492660522461 C 11.65059280395508 35.33492660522461 -1.014144897460938 28.15912055969238 -0.5674057006835938 18.66455841064453 C -0.0963287353515625 8.652397155761719 14.77924346923828 -0.1460151672363281 32.65811157226563 -0.9872283935546875 C 33.58238983154297 -1.030719757080078 34.49921417236328 -1.052131652832031 35.40186309814453 -1.052131652832031 Z" stroke="none" fill="#21af97"/>
      </g>
    </g>
    <g id="Сгруппировать_9" data-name="Сгруппировать 9" transform="matrix(0.407, -0.914, 0.914, 0.407, -1492.462, 1033.884)">
      <g id="Контур_1-4" data-name="Контур 1" transform="translate(194.625 1773.78) rotate(-56)" fill="none">
        <path d="M32.057.985c17.879.841,32.754,9.64,33.226,19.652S51.642,38.084,33.763,37.242,1.009,27.6.538,17.591,14.178.144,32.057.985Z" stroke="none"/>
        <path d="M 29.31337356567383 5.920223236083984 C 24.43544006347656 5.920223236083984 19.77345657348633 6.613037109375 15.83140182495117 7.923755645751953 C 12.25828170776367 9.111808776855469 9.405040740966797 10.75083541870117 7.580135345458984 12.66362190246582 C 6.125160217285156 14.18866348266602 5.455226898193359 15.72340965270996 5.532028198242188 17.3555965423584 C 5.597896575927734 18.75563621520996 6.214935302734375 20.21878242492676 7.366001129150391 21.70439529418945 C 8.690975189208984 23.41444969177246 10.69720077514648 25.09074401855469 13.16781616210938 26.55202293395996 C 15.84528350830078 28.13565063476563 18.96718978881836 29.43400955200195 22.44681549072266 30.4110221862793 C 26.11868286132813 31.4420223236084 30.00508117675781 32.06003570556641 33.99801635742188 32.24790191650391 C 34.83541488647461 32.28730392456055 35.67948150634766 32.30727767944336 36.50677490234375 32.30727767944336 C 41.38471984863281 32.30727767944336 46.04672241210938 31.61446380615234 49.98877716064453 30.30374336242676 C 53.56190872192383 29.11568832397461 56.4151611328125 27.47666168212891 58.24006652832031 25.56387710571289 C 59.69503021240234 24.03884887695313 60.36496353149414 22.50408935546875 60.28816223144531 20.87191581726074 C 60.22229385375977 19.47187614440918 59.60525512695313 18.00872993469238 58.45418930053711 16.52311706542969 C 57.12921524047852 14.81306266784668 55.12298965454102 13.13677024841309 52.65237426757813 11.67548942565918 C 49.97490692138672 10.09186363220215 46.85300445556641 8.793502807617188 43.37337493896484 7.816490173339844 C 39.70149612426758 6.785490036010742 35.81509399414063 6.167476654052734 31.82209396362305 5.979595184326172 C 30.98480224609375 5.940196990966797 30.1407470703125 5.920223236083984 29.31337356567383 5.920223236083984 M 29.31337356567383 0.92022705078125 C 30.21706008911133 0.92022705078125 31.13175201416016 0.94158935546875 32.05712127685547 0.9851303100585938 C 49.93598937988281 1.826343536376953 64.81156158447266 10.62474250793457 65.28263854980469 20.63691711425781 C 65.72935485839844 30.13086891174316 53.06303787231445 37.30728149414063 36.50677490234375 37.30728149414063 C 35.60308456420898 37.30728149414063 34.68842697143555 37.28592300415039 33.76305389404297 37.24238204956055 C 15.88420104980469 36.40116882324219 1.008628845214844 27.60276985168457 0.5375518798828125 17.59059524536133 C 0.0908355712890625 8.096643447875977 12.75712966918945 0.92022705078125 29.31337356567383 0.92022705078125 Z" stroke="none" fill="#21af97"/>
      </g>
      <g id="Контур_2-4" data-name="Контур 2" transform="translate(240.173 1791.128) rotate(-137)" fill="none">
        <path d="M32.658-.987c17.879-.841,31.991,6.593,31.52,16.605S48.831,34.429,30.952,35.27-1.038,28.677-.567,18.665,14.779-.146,32.658-.987Z" stroke="none"/>
        <path d="M 35.40185546875 3.947864532470703 C 34.57452392578125 3.947864532470703 33.7304573059082 3.967838287353516 32.89311218261719 4.007251739501953 C 28.90013885498047 4.195117950439453 25.01373672485352 4.813131332397461 21.34185791015625 5.844131469726563 C 17.86223220825195 6.821144104003906 14.74032592773438 8.119504928588867 12.06285858154297 9.703144073486328 C 9.592243194580078 11.16442489624023 7.586017608642578 12.8407039642334 6.261043548583984 14.55077171325684 C 5.109977722167969 16.0363712310791 4.492938995361328 17.4995174407959 4.427070617675781 18.89955711364746 C 4.350242614746094 20.53215789794922 5.020217895507813 22.0671443939209 6.475231170654297 23.59223747253418 C 8.299991607666016 25.5048770904541 11.15305709838867 27.14373016357422 14.72599029541016 28.33162307739258 C 18.66793823242188 29.64219665527344 23.33008575439453 30.33493041992188 28.20841598510742 30.33493041992188 C 29.03575134277344 30.33493041992188 29.87981796264648 30.31495666503906 30.7171630859375 30.27554321289063 C 34.71013641357422 30.08767700195313 38.59653854370117 29.46966361999512 42.26841735839844 28.43866348266602 C 45.748046875 27.46165084838867 48.86994934082031 26.16329193115234 51.54741668701172 24.57965087890625 C 54.01803207397461 23.11837005615234 56.02426910400391 21.44209098815918 57.3492431640625 19.73202514648438 C 58.50031280517578 18.24641036987305 59.11735153198242 16.78327751159668 59.1832160949707 15.38323783874512 C 59.26004409790039 13.75065040588379 58.59008407592773 12.21565055847168 57.13505554199219 10.6905574798584 C 55.31029891967773 8.777931213378906 52.45721817016602 7.139078140258789 48.88428497314453 5.951169967651367 C 44.94235229492188 4.640598297119141 40.28020477294922 3.947864532470703 35.40185546875 3.947864532470703 M 35.40186309814453 -1.052131652832031 C 51.95968246459961 -1.052131652832031 64.62442779541016 6.123674392700195 64.17769622802734 15.61823654174805 C 63.70660400390625 25.63039779663086 48.83103179931641 34.42881011962891 30.95216369628906 35.27002334594727 C 30.02788543701172 35.31351470947266 29.11106491088867 35.33492660522461 28.20841217041016 35.33492660522461 C 11.65059280395508 35.33492660522461 -1.014144897460938 28.15912055969238 -0.5674057006835938 18.66455841064453 C -0.0963287353515625 8.652397155761719 14.77924346923828 -0.1460151672363281 32.65811157226563 -0.9872283935546875 C 33.58238983154297 -1.030719757080078 34.49921417236328 -1.052131652832031 35.40186309814453 -1.052131652832031 Z" stroke="none" fill="#21af97"/>
      </g>
    </g>
    <g id="Сгруппировать_10" data-name="Сгруппировать 10" transform="matrix(0.995, -0.105, 0.105, 0.995, -1105.23, 365.051)">
      <g id="Эллипс_2-5" data-name="Эллипс 2" transform="translate(1099.846 1172.556) rotate(-45)" fill="none" stroke="#21af97" stroke-width="7">
        <ellipse cx="50" cy="28" rx="50" ry="28" stroke="none"/>
        <ellipse cx="50" cy="28" rx="46.5" ry="24.5" fill="none"/>
      </g>
      <g id="Эллипс_3-5" data-name="Эллипс 3" transform="translate(1170.344 1211.824) rotate(-135)" fill="none" stroke="#21af97" stroke-width="7">
        <ellipse cx="50" cy="28" rx="50" ry="28" stroke="none"/>
        <ellipse cx="50" cy="28" rx="46.5" ry="24.5" fill="none"/>
      </g>
    </g>
  </g>
</svg>
